<svg stroke-miterlimit="10" style="fill-rule:nonzero;clip-rule:evenodd;stroke-linecap:round;stroke-linejoin:round" viewBox="0 0 300 300" xml:space="preserve" xmlns="http://www.w3.org/2000/svg">
  <style>@media (prefers-color-scheme: dark) { .a { fill: #333 }}
  </style>
  <path class="a" d="M8.177 150.172c0 81.704 64.138 147.938 143.255 147.938 79.118 0 143.255-66.234 143.255-147.938S230.55 2.234 151.432 2.234C72.315 2.234 8.177 68.468 8.177 150.172" fill="#fff"/>
  <path d="M284.218 171.41c0 63.844-60.407 115.601-134.92 115.601-74.513 0-134.905-51.757-134.905-115.601" fill="#43d982"/>
  <path d="M283.989 160.053H16.011a8.022 8.022 0 0 0-8.077 8.078 8.02 8.02 0 0 0 8.077 8.077h37.292l-26.837 38.495a7.878 7.878 0 0 0 2.133 11.171 7.937 7.937 0 0 0 11.17-2.149l33.011-47.746h10.455l-32.538 70.56a8.078 8.078 0 1 0 14.722 6.645l35.646-77.205h11.886L90.367 273.62a8.293 8.293 0 0 0 5.943 9.739c.716.243 1.189.243 1.905.243a8.347 8.347 0 0 0 7.833-6.186l23.287-101.208h12.588V285.98a8.018 8.018 0 0 0 8.077 8.077 8.02 8.02 0 0 0 8.077-8.077V176.208h12.603l23.272 101.208a8.077 8.077 0 0 0 7.833 6.186c.716 0 1.189 0 1.905-.243a7.877 7.877 0 0 0 5.943-9.739l-22.57-97.641h11.887l35.631 77.205c1.432 2.864 4.268 4.755 7.361 4.755a7.607 7.607 0 0 0 3.322-.716 8.292 8.292 0 0 0 4.039-10.684l-32.538-70.56h10.455l33.01 47.746a7.935 7.935 0 0 0 11.171 2.149 8.307 8.307 0 0 0 2.148-11.171l-26.623-38.724h37.063a8.02 8.02 0 0 0 8.077-8.078 8.12 8.12 0 0 0-8.077-7.848Z" fill="#322b1f"/>
  <path d="M150 295.589C69.801 295.589 4.41 230.199 4.41 150S69.802 4.41 150 4.41 295.589 69.802 295.589 150 230.199 295.589 150 295.589Zm0-280.953C75.415 14.636 14.622 75.416 14.622 150c0 74.585 60.793 135.378 135.378 135.378 74.585 0 135.378-60.793 135.378-135.378 0-74.585-60.793-135.364-135.378-135.364Z" fill="#322b1f"/>
  <path d="M150 300C67.367 300 0 232.633 0 150S67.367 0 150 0s150 67.367 150 150-67.367 150-150 150Zm0-289.474C73.153 10.526 10.512 73.153 10.512 150c0 76.847 62.64 139.474 139.488 139.474 76.847 0 139.488-62.627 139.488-139.488C289.488 73.124 226.833 10.54 150 10.54v-.014Z" fill="#322b1f"/>
  <path d="M54.907 127.831c-5.164-5.162-5.165-13.532-.003-18.695 5.163-5.164 13.533-5.164 18.696 0 5.162 5.163 5.16 13.533-.003 18.695a13.204 13.204 0 0 1-18.69 0Zm44.138-49.895a13.218 13.218 0 1 1 9.352-3.867 13.174 13.174 0 0 1-9.352 3.867Z" fill="#00acea"/>
  <path d="M149.914 149.341c2.198-.01 4.394.128 6.573.416l5.786-6.717 15.009 5.8-.272 8.936a44.295 44.295 0 0 1 11.056 10.526l8.95-.658 6.445 14.75-6.445 6.173a49.264 49.264 0 0 1 .387 15.266l6.717 5.786-5.8 14.994-8.937-.257a44.36 44.36 0 0 1-10.526 11.055l.659 8.937-14.751 6.444-6.158-6.444a49.484 49.484 0 0 1-15.281.401l-5.785 6.702-14.995-5.786.258-8.95a44.365 44.365 0 0 1-11.056-10.526l-8.936.658-6.445-14.736 6.445-6.173a49.295 49.295 0 0 1-.401-15.266l-6.703-5.786 5.786-14.994 8.951.258a44.347 44.347 0 0 1 10.526-11.056l-.659-8.936 14.737-6.445 6.172 6.445a49.133 49.133 0 0 1 8.693-.817Zm-30.318 47.919c.008 16.732 13.576 30.292 30.309 30.289 16.732-.002 30.296-13.566 30.298-30.299.003-16.732-13.556-30.3-30.289-30.308-16.747-.008-30.326 13.57-30.318 30.318Z" fill="#43d982"/>
  <path d="M149.914 227.563c-16.736 0-30.304-13.567-30.304-30.303s13.568-30.304 30.304-30.304c16.736 0 30.304 13.568 30.304 30.304 0 16.736-13.568 30.303-30.304 30.303Z" fill="#fedb41"/>
  <path d="M149.914 74.957a13.22 13.22 0 1 1 9.337-3.867 13.159 13.159 0 0 1-9.337 3.867Zm50.855 2.979a13.219 13.219 0 1 1 9.351-3.867 13.174 13.174 0 0 1-9.351 3.867Zm25.448 49.895c-5.164-5.162-5.165-13.532-.003-18.695 5.163-5.164 13.533-5.164 18.695 0 5.163 5.163 5.161 13.533-.003 18.695a13.2 13.2 0 0 1-18.689 0Z" fill="#00acea"/>
  <path d="M115.815 197.26c.008 18.822 15.272 34.075 34.094 34.07 18.823-.005 34.078-15.267 34.075-34.089-.002-18.823-15.262-34.08-34.084-34.08-18.815.024-34.061 15.27-34.085 34.085v.014Zm60.622 0c-.008 14.646-11.886 26.514-26.532 26.508-14.647-.005-26.516-11.881-26.514-26.527.003-14.646 11.877-26.518 26.523-26.518 14.647.016 26.515 11.89 26.523 26.537Z" fill="#083863"/>
  <path d="M64.26 135.493a16.942 16.942 0 0 0 16.726-13.892h65.133v24.117a48.76 48.76 0 0 0-3.537.387l-4.812-5.013a3.782 3.782 0 0 0-4.254-.859l-14.722 6.444a3.783 3.783 0 0 0-2.263 3.753l.516 6.917a47.892 47.892 0 0 0-8.535 8.965l-6.903-.215a3.78 3.78 0 0 0-3.652 2.435l-5.786 14.994a3.781 3.781 0 0 0 1.06 4.225l5.198 4.482a52.994 52.994 0 0 0 .316 12.345l-5.013 4.812a3.78 3.78 0 0 0-.845 4.239l6.445 14.751a3.78 3.78 0 0 0 3.752 2.248l6.917-.515a47.956 47.956 0 0 0 8.965 8.535l-.2 6.903a3.78 3.78 0 0 0 2.42 3.652l14.994 5.786a3.783 3.783 0 0 0 4.225-1.06l4.482-5.199c4.119.371 8.267.261 12.36-.329l4.797 5.012a3.78 3.78 0 0 0 4.254.859l14.736-6.444a3.78 3.78 0 0 0 2.248-3.752l-.501-6.917a47.96 47.96 0 0 0 8.536-8.965l6.902.214a3.78 3.78 0 0 0 3.638-2.434l5.786-14.994a3.782 3.782 0 0 0-1.06-4.225l-5.199-4.483a52.95 52.95 0 0 0-.315-12.345l5.013-4.811a3.783 3.783 0 0 0 .845-4.24l-6.445-14.75a3.781 3.781 0 0 0-3.752-2.249l-6.917.516a47.93 47.93 0 0 0-8.965-8.536l.215-6.902a3.782 3.782 0 0 0-2.435-3.652l-14.994-5.786a3.78 3.78 0 0 0-4.225 1.06l-4.483 5.198-1.231-.086v-24.074h65.147c1.56 8.557 9.299 14.576 17.976 13.981 8.678-.595 15.523-7.613 15.901-16.303.378-8.689-5.833-16.276-14.426-17.621-8.593-1.346-16.825 3.979-19.122 12.368h-41.345v-13.248h22.943a4.082 4.082 0 0 0 4.01-3.895v-15.61a17.746 17.746 0 0 0 8.134-4.554 17.043 17.043 0 1 0-24.045 0 16.285 16.285 0 0 0 8.349 4.554v11.944h-23.358a3.538 3.538 0 0 0-3.609 3.666v17.143h-16.555V78.322c8.433-1.927 14.074-9.881 13.104-18.477-.97-8.597-8.241-15.094-16.892-15.094s-15.922 6.497-16.892 15.094c-.97 8.596 4.671 16.55 13.104 18.478v35.717h-16.555V96.897a3.539 3.539 0 0 0-3.595-3.666h-23.372V81.287a16.31 16.31 0 0 0 8.349-4.554c6.636-6.63 6.656-17.379.043-24.031a16.942 16.942 0 0 0-23.988 0c-6.648 6.612-6.7 17.355-.114 24.03a17.758 17.758 0 0 0 8.134 4.555v15.61a4.08 4.08 0 0 0 4.01 3.895h22.957v13.248h-41.36c-2.314-8.488-10.727-13.804-19.386-12.25-8.66 1.553-14.7 9.462-13.918 18.225.78 8.763 8.123 15.479 16.92 15.478h.015ZM156 153.509a3.783 3.783 0 0 0 3.351-1.289l4.053-4.683 10.01 3.866-.186 6.273a3.779 3.779 0 0 0 1.69 3.251 40.393 40.393 0 0 1 10.096 9.624 3.78 3.78 0 0 0 3.323 1.532l6.287-.458 4.296 9.853-4.525 4.354a3.778 3.778 0 0 0-1.103 3.422c.85 4.646.971 9.395.358 14.078a3.782 3.782 0 0 0 1.289 3.366l4.683 4.038-3.867 10.025-6.258-.186a3.78 3.78 0 0 0-3.265 1.675 40.456 40.456 0 0 1-9.624 10.111 3.782 3.782 0 0 0-1.533 3.323l.473 6.272-9.867 4.311-4.354-4.54a3.78 3.78 0 0 0-3.408-1.103 45.602 45.602 0 0 1-14.107.373 3.792 3.792 0 0 0-3.351 1.289l-4.038 4.683-10.025-3.867.186-6.273a3.783 3.783 0 0 0-1.676-3.251 40.437 40.437 0 0 1-10.11-9.638 3.782 3.782 0 0 0-3.323-1.518l-6.273.458-4.31-9.867 4.539-4.339a3.78 3.78 0 0 0 1.103-3.423 45.474 45.474 0 0 1-.358-14.092 3.78 3.78 0 0 0-1.289-3.351l-4.697-4.053 3.867-10.01 6.272.186a3.769 3.769 0 0 0 3.266-1.676 40.468 40.468 0 0 1 9.623-10.111 3.78 3.78 0 0 0 1.518-3.322l-.458-6.273 9.867-4.311 4.354 4.54a3.781 3.781 0 0 0 3.409 1.103 45.6 45.6 0 0 1 7.848-.745h.343a44.958 44.958 0 0 1 5.901.373Zm38.094-82.118a9.452 9.452 0 1 1 6.802 2.75h-.243a9.354 9.354 0 0 1-6.545-2.75h-.014Zm34.8 40.429a9.429 9.429 0 1 1 13.333 13.333 9.423 9.423 0 1 1-13.333-13.319v-.014Zm-88.419-50.067a9.424 9.424 0 1 1 16.097 6.66A9.35 9.35 0 0 1 150 71.175h-.186a9.424 9.424 0 0 1-9.338-9.423Zm-48.104-3.695a9.428 9.428 0 0 1 13.33-.012c3.685 3.677 3.693 9.645.017 13.33a9.352 9.352 0 0 1-6.545 2.765h-.243a9.423 9.423 0 0 1-6.545-16.097l-.014.014ZM57.585 111.82a9.433 9.433 0 0 1 13.34-.007 9.432 9.432 0 0 1 .008 13.34 9.428 9.428 0 0 1-13.336.016c-3.686-3.678-3.692-9.65-.012-13.335v-.014Z" fill="#083863"/>
</svg>
